<svg xmlns="http://www.w3.org/2000/svg" viewBox="-20, -16, 540, 1253.45" font-family='SFMono-Regular, Menlo, Consolas, "Courier New", monospace' font-size="14"><g fill="#a9b1d6"><rect x="-20" y="-16" width="540" height="1253.45" fill="#1a1b26"/><text x="0" y="16.55" font-weight="bold" fill="#9ece6a">$</text><text x="16.8" y="16.55" font-weight="bold"> </text><text x="16.8" y="16.55" font-weight="bold" fill="#a9b1d6">smart-recipe import-url https://example.com/duck-ragu</text><text x="16.8" y="58.55" font-weight="bold" fill="#e0af68">&#x26A0;  No OpenAI API key found.</text><text x="16.8" y="79.55">  You can get one at </text><text x="176.43" y="79.55" fill="#7dcfff">https://platform.openai.com/api-keys</text><text x="0" y="121.55">&#x2714;   Paste your OpenAI API key &#xB7; </text><text x="268.84" y="121.55" fill="#7dcfff">&#x2022;&#x2022;&#x2022;&#x2022;&#x2022;&#x2022;&#x2022;&#x2022;&#x2022;&#x2022;&#x2022;&#x2022;&#x2022;&#x2022;&#x2022;&#x2022;</text><text x="0" y="142.55">&#x2714;   Save this key to ~/.smart-recipe? Yes</text><text x="16.8" y="163.55" fill="#9ece6a">&#x2713; Saved to ~/.smart-recipe</text><text x="16.8" y="205.55">Retrieving recipe page...</text><text x="16.8" y="226.55">Analyzing content with OpenAI...</text><text x="16.8" y="289.55" fill="#565f89">&#x250C;&#x2500;&#x2500;&#x2500;&#x2500;&#x2500;&#x2500;&#x2500;&#x2500;&#x2500;&#x2500;&#x2500;&#x2500;&#x2500;&#x2500;&#x2500;&#x2500;&#x2500;&#x2500;&#x2500;&#x2500;&#x2500;&#x2500;&#x2500;&#x2500;&#x2500;&#x2500;&#x2500;&#x2500;&#x2500;&#x2500;&#x2510;</text><text x="16.8" y="310.55" fill="#565f89">&#x2502;  </text><text x="42.01" y="310.55" font-weight="bold" fill="#bb9af7">Tuscan Duck Rag&#xF9; with Pici</text><text x="277.25" y="310.55" fill="#565f89">  &#x2502;</text><text x="16.8" y="331.55" fill="#565f89">&#x2514;&#x2500;&#x2500;&#x2500;&#x2500;&#x2500;&#x2500;&#x2500;&#x2500;&#x2500;&#x2500;&#x2500;&#x2500;&#x2500;&#x2500;&#x2500;&#x2500;&#x2500;&#x2500;&#x2500;&#x2500;&#x2500;&#x2500;&#x2500;&#x2500;&#x2500;&#x2500;&#x2500;&#x2500;&#x2500;&#x2500;&#x2518;</text><text x="16.8" y="352.55" font-style="italic" fill="#565f89">A rich Tuscan-style duck rag&#xF9; with tender pieces</text><text x="16.8" y="373.55" font-style="italic" fill="#565f89">of duck breast, aromatic vegetables, red wine,</text><text x="16.8" y="394.55" font-style="italic" fill="#565f89">tomato and beef broth. Thick pici pasta is tossed</text><text x="16.8" y="415.55" font-style="italic" fill="#565f89">with the deeply savory sauce, then finished with</text><text x="16.8" y="436.55" font-style="italic" fill="#565f89">fresh parsley and finely grated Parmesan.</text><text x="369.66" y="436.55"> [DRAFT]</text><text x="16.8" y="478.55">  &#x1F465; </text><text x="42.01" y="478.55" font-weight="bold">4 servings</text><text x="201.63" y="478.55">         &#x1F552; Preparation: </text><text x="336.05" y="478.55" font-weight="bold">25 m</text><text x="16.8" y="499.55">  &#x1F3C1; Ready in: </text><text x="126.02" y="499.55" font-weight="bold">1h 15m</text><text x="201.63" y="499.55">   &#x1F4CA; Complexity: </text><text x="327.65" y="499.55" font-weight="bold">Medium</text><text x="16.8" y="541.55">  &#x1F525; </text><text x="42.01" y="541.55" font-weight="bold">875 kCal</text><text x="201.63" y="541.55">           &#x1F35E; </text><text x="226.84" y="541.55" font-weight="bold">105g</text><text x="268.84" y="541.55"> Carbs</text><text x="16.8" y="562.55">  &#x1F951; </text><text x="42.01" y="562.55" font-weight="bold">20g</text><text x="75.61" y="562.55"> Fat            &#x1F969; </text><text x="226.84" y="562.55" font-weight="bold">53g</text><text x="260.44" y="562.55"> Protein</text><path d="M16.802734375,606.5146875 L117.619140625,606.5146875 Z" stroke="#3b4261"/><text x="16.8" y="604.55" font-weight="bold">Ingredients:</text><text x="33.61" y="646.55" font-weight="bold">&#x1F963; Cheese and garnish</text><text x="50.41" y="667.55">      &#x2022; </text><text x="67.21" y="667.55" fill="#7aa2f7">100</text><text x="100.82" y="667.55" fill="#7dcfff">g</text><text x="117.62" y="667.55"> Parmesan cheese</text><text x="50.41" y="688.55">      &#x2022; </text><text x="67.21" y="688.55" fill="#7aa2f7">30</text><text x="92.42" y="688.55" fill="#7dcfff">g</text><text x="109.22" y="688.55"> fresh parsley</text><line x1="-20" y1="725.55" x2="520" y2="725.55" stroke="#3b4261" stroke-width="1" stroke-dasharray="4 4" /><rect x="110" y="715.55" width="280" height="20" fill="#1a1b26" /><text x="250" y="729.55" font-family="system-ui, -apple-system, sans-serif" font-style="italic" font-size="12" fill="#565f89" text-anchor="middle" font-weight="normal">(and 11 more ingredients, 23 steps)</text><text x="0" y="772.55">&#x2714;   Upload this recipe to Monsieur Cuisine? Yes</text><text x="16.8" y="814.55" font-weight="bold" fill="#e0af68">&#x26A0;  No Monsieur Cuisine session found.</text><text x="0" y="856.55">?   How would you like to authenticate?</text><text x="0" y="877.55">&#x276F; Browser login  (opens Lidl Plus login window)</text><text x="16.8" y="898.55">  Paste cookie   (enter Cookie header manually)</text><text x="0" y="940.55">A small Chromium window opens so you can</text><text x="0" y="961.55">sign in with your Lidl Plus account.</text><text x="0" y="982.55">&#x2191;&#x2193; navigate &#x2022; &#x23CE; select</text><text x="16.8" y="1024.55">Opening Lidl Plus login window...</text><text x="16.8" y="1045.55">Captured session cookie successfully!</text><text x="0" y="1087.55">&#x2714;   Save this session cookie to ~/.smart-recipe? Yes</text><text x="16.8" y="1108.55" fill="#9ece6a">&#x2713; Saved MC_COOKIE to ~/.smart-recipe</text><text x="16.8" y="1150.55">Uploading recipe draft...</text><text x="16.8" y="1171.55" font-weight="bold" fill="#9ece6a">&#x2713; Recipe uploaded successfully!</text><text x="16.8" y="1192.55" fill="#7dcfff">https://www.monsieur-cuisine.com/recipe/duck-ragu</text></g></svg>